<svg xmlns="http://www.w3.org/2000/svg" id="Layer_1" x="0px" y="0px" viewBox="0 0 314.55 279.63"
     style="enable-background:new 0 0 314.55 279.63;" xml:space="preserve"> <style type="text/css"> .st0{fill:#1D1D1B;} .st1{fill:#FDDD5E;} .st2{fill:#50C16B;} .st3{fill:#A87AFF;} </style> <g> <path class="st0" d="M38.93,79.78V60.13l-15.84-32.9h6.7l10.44,21.6c0.58,1.2,1.03,2.22,1.37,3.06c0.34,0.84,0.55,1.45,0.65,1.84 c0.1-0.38,0.32-1,0.68-1.84c0.36-0.84,0.83-1.86,1.4-3.06l10.22-21.6h6.7l-15.84,32.9v19.66H38.93z"/> <path class="st0" d="M67.37,79.78l13.68-52.56h8.71l13.61,52.56h-6.55l-3.46-13.97H77.45l-3.46,13.97H67.37z M78.74,60.34h13.25 l-4.03-16.2c-0.77-3.07-1.37-5.64-1.8-7.7c-0.43-2.06-0.7-3.41-0.79-4.03c-0.1,0.62-0.36,1.97-0.79,4.03 c-0.43,2.06-1.03,4.61-1.8,7.63L78.74,60.34z"/> <path class="st0" d="M112.44,79.78V27.22h8.5l5.62,16.99c0.53,1.54,0.97,3.06,1.33,4.57c0.36,1.51,0.64,2.68,0.83,3.49 c0.19-0.82,0.48-1.98,0.86-3.49c0.38-1.51,0.82-3.06,1.3-4.64l5.33-16.92h8.5v52.56h-6.34V54.94c0-4.27,0.19-8.47,0.58-12.6 c0.38-4.13,0.82-8.09,1.3-11.88l-8.57,26.28h-6.19l-8.64-26.28c0.53,3.65,0.98,7.46,1.37,11.45c0.38,3.98,0.58,8.33,0.58,13.03 v24.84H112.44z"/> <path class="st0" d="M153.77,79.78l13.68-52.56h8.71l13.61,52.56h-6.55l-3.46-13.97h-15.91l-3.46,13.97H153.77z M165.14,60.34 h13.25l-4.03-16.2c-0.77-3.07-1.37-5.64-1.8-7.7c-0.43-2.06-0.7-3.41-0.79-4.03c-0.1,0.62-0.36,1.97-0.79,4.03 c-0.43,2.06-1.03,4.61-1.8,7.63L165.14,60.34z"/> <polygon class="st0" points="202.73,79.78 202.73,27.22 209.2,27.22 209.2,73.88 232.97,73.88 232.97,79.78 "/> <path class="st0" d="M37.94,252.4c-4.8,0-8.59-1.34-11.38-4.03c-2.79-2.69-4.18-6.38-4.18-11.09v-23.76c0-4.7,1.39-8.4,4.18-11.09 c2.78-2.69,6.57-4.03,11.38-4.03c4.7,0,8.45,1.36,11.23,4.07c2.78,2.71,4.18,6.4,4.18,11.05h-6.48c0-2.98-0.78-5.27-2.34-6.88 c-1.56-1.61-3.76-2.41-6.59-2.41c-2.83,0-5.05,0.79-6.66,2.38c-1.61,1.58-2.41,3.86-2.41,6.84v23.83c0,2.98,0.8,5.27,2.41,6.88 c1.61,1.61,3.83,2.41,6.66,2.41c2.83,0,5.03-0.8,6.59-2.41c1.56-1.61,2.34-3.9,2.34-6.88h6.48c0,4.66-1.39,8.34-4.18,11.05 C46.39,251.05,42.64,252.4,37.94,252.4"/> <path class="st0" d="M80.85,252.4c-4.71,0-8.42-1.34-11.16-4.03c-2.74-2.69-4.1-6.38-4.1-11.09v-23.76c0-4.7,1.37-8.4,4.1-11.09 c2.74-2.69,6.45-4.03,11.16-4.03c4.7,0,8.42,1.33,11.16,4c2.74,2.66,4.1,6.35,4.1,11.05v23.83c0,4.7-1.37,8.4-4.1,11.09 C89.27,251.06,85.55,252.4,80.85,252.4 M80.85,246.57c2.83,0,5-0.8,6.52-2.41c1.51-1.61,2.27-3.9,2.27-6.88v-23.76 c0-2.98-0.76-5.27-2.27-6.88c-1.51-1.61-3.68-2.41-6.52-2.41c-2.79,0-4.94,0.8-6.48,2.41c-1.54,1.61-2.3,3.9-2.3,6.88v23.76 c0,2.98,0.77,5.27,2.3,6.88C75.91,245.77,78.07,246.57,80.85,246.57"/> <path class="st0" d="M108.93,251.68v-52.56h8.64l16.06,45c-0.1-1.2-0.2-2.67-0.32-4.43c-0.12-1.75-0.22-3.6-0.29-5.54 s-0.11-3.78-0.11-5.51v-29.52h6.26v52.56h-8.64l-15.98-45c0.1,1.15,0.19,2.6,0.29,4.36c0.1,1.75,0.18,3.6,0.25,5.54 c0.07,1.94,0.11,3.8,0.11,5.58v29.52H108.93z"/> <polygon class="st0" points="152.49,251.68 152.49,199.12 183.45,199.12 183.45,205.03 158.82,205.03 158.82,222.45 181.58,222.45 181.58,228.35 158.97,228.35 158.97,251.68 "/> <path class="st0" d="M172.82,166.16V113.6h13.61c3.41,0,6.35,0.65,8.82,1.94c2.47,1.3,4.39,3.12,5.76,5.47 c1.37,2.35,2.05,5.14,2.05,8.35v20.95c0,3.22-0.68,6.01-2.05,8.39c-1.37,2.38-3.29,4.21-5.76,5.51c-2.47,1.29-5.41,1.94-8.82,1.94 H172.82z M179.3,160.4h7.13c3.17,0,5.65-0.89,7.45-2.66c1.8-1.78,2.7-4.25,2.7-7.42v-20.95c0-3.12-0.9-5.57-2.7-7.34 c-1.8-1.78-4.28-2.66-7.45-2.66h-7.13V160.4z"/> <polygon class="st0" points="216.6,166.16 216.6,113.6 246.84,113.6 246.84,119.5 223,119.5 223,135.78 244.32,135.78 244.32,141.54 223,141.54 223,160.26 246.84,160.26 246.84,166.16 "/> <path class="st0" d="M269.73,166.16L256.2,113.6h6.62l9,35.78c0.62,2.5,1.14,4.8,1.55,6.91c0.41,2.11,0.71,3.72,0.9,4.82 c0.19-1.1,0.52-2.72,0.97-4.86c0.46-2.14,1-4.45,1.62-6.95l8.64-35.71h6.7l-13.61,52.56H269.73z"/> <polygon class="st1" points="254.91,74.24 250.71,71.24 263.31,53.69 243.06,47.24 244.71,42.44 265.26,48.89 265.26,27.44 270.21,27.44 270.21,48.89 290.61,42.44 292.26,47.24 272.01,53.69 284.61,71.24 280.41,74.24 267.66,56.69 "/> <polygon class="st2" points="22.29,166.18 42.17,113.54 47.49,113.54 27.61,166.18 "/> <polygon class="st2" points="55.89,166.18 75.77,113.54 81.09,113.54 61.21,166.18 "/> <polygon class="st2" points="89.49,166.18 109.37,113.54 114.69,113.54 94.81,166.18 "/> <polygon class="st2" points="123.09,166.18 142.97,113.54 148.29,113.54 128.41,166.18 "/> <polygon class="st3" points="278.89,206.93 271.33,206.93 282.19,223.83 205.64,223.93 205.64,229.49 282.19,229.59 271.33,246.5 278.89,246.5 291.59,226.71 "/> </g> </svg>
