<svg width="512" height="108" viewBox="0 0 512 108" fill="none" xmlns="http://www.w3.org/2000/svg">
<g clip-path="url(#clip0_1340_5)">
<path d="M351 94.4002V51.2002H315L314.5 62.2002C313.7 80.2002 308.8 91.6002 306.6 94.4002H300.7V106.2H358.4V94.4002H351ZM338.4 94.4002H320.5C322.4 92.0002 325.5 81.7002 326.4 72.2002L327.3 62.9002H338.5V94.4002H338.4Z" fill="white"/>
<path d="M142.4 63.1004C151 63.1004 158.1 70.1004 158.1 78.8004C158.1 87.5004 151.1 94.5004 142.4 94.5004C133.8 94.5004 126.7 87.5004 126.7 78.8004C126.7 70.1004 133.7 63.1004 142.4 63.1004ZM142.4 50.4004C126.8 50.4004 114.1 63.1004 114.1 78.7004C114.1 94.3004 126.8 107 142.4 107C158 107 170.7 94.3004 170.7 78.7004C170.7 63.1004 158 50.4004 142.4 50.4004Z" fill="white"/>
<path d="M265.4 63.1004C274 63.1004 281.1 70.1004 281.1 78.8004C281.1 87.5004 274.1 94.5004 265.4 94.5004C256.7 94.5004 249.7 87.5004 249.7 78.8004C249.7 70.1004 256.8 63.1004 265.4 63.1004ZM265.4 50.4004C249.8 50.4004 237.1 63.1004 237.1 78.7004C237.1 94.3004 249.8 107 265.4 107C281 107 293.7 94.3004 293.7 78.7004C293.7 63.1004 281 50.4004 265.4 50.4004Z" fill="white"/>
<path d="M188.8 51.9004L188 63.0004C185.8 93.6004 181 95.3004 176.5 94.6004L176.3 107.2C189.2 109.3 196.2 103.3 199.5 74.2004L200.7 63.8004H212.9V107.2H225.5V51.9004H188.8Z" fill="white"/>
<path d="M98.4 50.4004H82V107.5H98.4V50.4004Z" fill="white"/>
<path d="M98.2996 50.5004L97.8996 58.1004L81.9996 73.9004L66.4996 89.1004L62.3996 84.1004L56.0996 76.4004L66.5996 65.9004L81.9996 50.4004L98.2996 50.5004Z" fill="white"/>
<path d="M72.8998 73.6004L62.3998 84.1004L56.0998 76.4004L34.7998 50.5004L53.8998 50.4004L66.5998 65.9004L72.8998 73.6004Z" fill="white"/>
<path d="M98.3 0V39.6H82V16.4H40.3C26.8 16.4 16.3 28.3 16.3 41.6C16.3 52.6 23.2 62.5 33.2 65.7C33.5 65.8 33.7 65.9 34 66L40 73.4L43.7 78C38.1 82.5 29.5 82 24.9 80C10.3 73.6 0 58.2 0 41.6C0 19.8 17.8 0.1 40 0H98.3Z" fill="white"/>
<path d="M43.6996 78.0002C43.5996 79.2002 42.4996 81.5002 41.5996 83.0002C39.2996 86.7002 37.0996 89.4002 33.7996 92.6002C26.2996 100.1 17.2996 105.1 8.09961 107.5V91.6002C13.3996 89.6002 18.5996 86.3002 22.9996 81.9002C23.6996 81.2002 24.2996 80.6002 24.7996 80.0002C28.7996 75.8002 30.6996 73.3002 32.7996 65.7002H33.0996L33.7996 65.8002L33.9996 66.0002L39.9996 73.4002L43.6996 78.0002Z" fill="white"/>
<path d="M390.1 94.7002H378.3V106.5H390.1V94.7002Z" fill="white"/>
<path d="M437.1 29.4004H425.3V41.2004H437.1V29.4004Z" fill="white"/>
<path d="M95.5002 8.40039H83.7002V20.2004H95.5002V8.40039Z" fill="white"/>
<path d="M409.7 107.4V100.3H429.1V60.0004H411.7V52.9004H437V100.3H455.4V107.4H409.7V107.4Z" fill="white"/>
<path d="M496.2 107.4C491.8 107.4 488.3 106.2 485.7 103.7C483.1 101.2 481.8 97.8 481.8 93.5V60H466.3V52.9H481.8V37.5H489.7V52.9H511.6V60H489.7V93.5C489.7 95.6 490.3 97.3 491.4 98.5C492.6 99.7 494.1 100.3 496.1 100.3H510.6V107.4H496.2V107.4Z" fill="white"/>
</g>
<defs>
<clipPath id="clip0_1340_5">
<rect width="511.6" height="107.5" fill="white"/>
</clipPath>
</defs>
</svg>
